<svg width="41" height="41" viewBox="0 0 41 41" fill="none" xmlns="http://www.w3.org/2000/svg">
<rect width="41" height="41" rx="6" fill="url(#paint0_linear_2_3)"/>
<path d="M15.5 25.3333V10.6667L31.5 8V25.3333" stroke="black" stroke-width="2.66667" stroke-linecap="round" stroke-linejoin="round"/>
<path d="M27.5 29.3333C29.7091 29.3333 31.5 27.5425 31.5 25.3333C31.5 23.1242 29.7091 21.3333 27.5 21.3333C25.2909 21.3333 23.5 23.1242 23.5 25.3333C23.5 27.5425 25.2909 29.3333 27.5 29.3333Z" stroke="black" stroke-width="2.66667" stroke-linecap="round" stroke-linejoin="round"/>
<path d="M8.71285 30.2818C8.36732 29.9815 8.12955 29.5736 8.03095 29.112C7.93235 28.6505 7.97755 28.1569 8.1606 27.6964C8.34364 27.236 8.65592 26.8305 9.05617 26.5333C9.45642 26.2362 9.92583 26.0614 10.4024 26.0321C10.4352 26.0295 10.4678 26.02 10.4981 26.0043C10.5283 25.9887 10.5556 25.9672 10.5782 25.9411C10.6009 25.9151 10.6184 25.885 10.6297 25.8529C10.6409 25.8208 10.6458 25.7872 10.6438 25.7543C10.604 25.2777 10.7101 24.7871 10.9481 24.3478C11.186 23.9086 11.5445 23.5415 11.9758 23.2955C12.4072 23.0495 12.8909 22.9362 13.3626 22.9707C13.8342 23.0051 14.2716 23.1858 14.6163 23.4885C15.3274 24.1064 15.4156 25.0774 15.4386 25.9916L15.4673 29.2907C15.4788 29.4118 15.4643 29.5362 15.425 29.6557C15.3856 29.7753 15.3222 29.8872 15.239 29.9841C15.1558 30.0809 15.0547 30.1605 14.9424 30.2176C14.8301 30.2746 14.7092 30.3078 14.5877 30.3149L11.3062 30.7469C10.3977 30.8517 9.42704 30.9024 8.71285 30.2818Z" stroke="black" stroke-width="2.7" stroke-linecap="round" stroke-linejoin="round"/>
<defs>
<linearGradient id="paint0_linear_2_3" x1="14.0643" y1="4.59801" x2="45.4357" y2="34.902" gradientUnits="userSpaceOnUse">
<stop stop-color="#238EB5"/>
<stop offset="1" stop-color="#00547B"/>
</linearGradient>
</defs>
<script xmlns=""/></svg>